<svg width="129" height="166" viewBox="0 0 129 166" fill="none" xmlns="http://www.w3.org/2000/svg">
<path d="M128.5 166V62L67.5 0H0V166H128.5Z" fill="#AAAAAA"/>
<path d="M67.5019 0L128.5 62H86.9803C86.9803 62 78.0066 61.7404 72.6278 56.3636C67.249 50.9868 67.5019 42.5289 67.5019 42.5289L67.5019 0Z" fill="#3B76E4"/>
<path d="M97.6552 83H26.3448C26.3448 83 23 83 23 85C23 87 26.3448 87 26.3448 87H97.6552C97.6552 87 101 87 101 85C101 83 97.6552 83 97.6552 83Z" fill="white"/>
<path d="M97.6552 96H26.3448C26.3448 96 23 96 23 98C23 100 26.3448 100 26.3448 100H97.6552C97.6552 100 101 100 101 98C101 96 97.6552 96 97.6552 96Z" fill="white"/>
<path d="M97.6552 109H26.3448C26.3448 109 23 109 23 111C23 113 26.3448 113 26.3448 113H97.6552C97.6552 113 101 113 101 111C101 109 97.6552 109 97.6552 109Z" fill="white"/>
</svg>
