<svg width="65" height="65" viewBox="0 0 65 65" fill="none" xmlns="http://www.w3.org/2000/svg">
<path d="M65 32.5C65 50.4493 50.4493 65 32.5 65C14.5507 65 0 50.4493 0 32.5C0 14.5507 14.5507 0 32.5 0C50.4493 0 65 14.5507 65 32.5Z" fill="#4A6FE9"/>
<path d="M25.7266 25C27.0026 24.0365 28.3177 23.3594 29.6719 22.9688C31.026 22.5521 32.4062 22.3438 33.8125 22.3438C36.3906 22.3438 38.8125 22.8385 41.0781 23.8281C43.3438 24.7917 45.3099 26.1328 46.9766 27.8516C48.6693 29.5443 49.9974 31.5365 50.9609 33.8281C51.9505 36.0938 52.4453 38.5156 52.4453 41.0938V58.1602C49.2804 60.6237 45.6479 62.5131 41.7031 63.6758V41.0938H41.7812C41.7812 40 41.5729 38.9714 41.1562 38.0078C40.7396 37.0182 40.1667 36.1589 39.4375 35.4297C38.7083 34.7005 37.862 34.1276 36.8984 33.7109C35.9349 33.2943 34.9062 33.0859 33.8125 33.0859C32.6927 33.0859 31.638 33.2943 30.6484 33.7109C29.6589 34.1276 28.7995 34.7005 28.0703 35.4297C27.3411 36.1589 26.7682 37.0182 26.3516 38.0078C25.9349 38.9714 25.7266 40 25.7266 41.0938V64.291C21.8759 63.4746 18.2771 61.9775 15.0625 59.9297V6.52344H25.7266V25Z" fill="white"/>
</svg>
